# xmcd
#
# Track frame offsets:
# 150
# 14275
# 30225
# 51775
# 67125
# 82225
# 100900
# 117825
# 137000
# 151625
#
# Disc length: 2067 seconds
#
#
# Revision: 0
# Processed by: cddbd v1.5.1PL2 Copyright (c) Steve Scherf et al.
# Submitted via: FreeRIP 2.944 
#
DISCID=7908110a
DTITLE=Various Artist - Virgin Records Nashville New Music Sampler 3
DYEAR=1900
DGENRE=
TTITLE0=Chris Cagle - My Love Goes On and On
TTITLE1=Chris Cagle - Country by the Grace of God
TTITLE2=Chris Cagle - The Safe Side
TTITLE3=Clay Davidson - I Can't Lie To Me
TTITLE4=Clay Davidson - Sometimes
TTITLE5=Clay Davidson - We're All Here
TTITLE6=Roy D Mercer - Roy vs Goldberg
TTITLE7=Roy D Mercer - Lost Lunch Box
TTITLE8=Tom Mabe - Low Self-Esteem
TTITLE9=Tom Mabe - Answering Machine
EXTD=
EXTT0=
EXTT1=
EXTT2=
EXTT3=
EXTT4=
EXTT5=
EXTT6=
EXTT7=
EXTT8=
EXTT9=
PLAYORDER=
